<svg width="37" height="37" viewBox="0 0 37 37" fill="none" xmlns="http://www.w3.org/2000/svg">
<g id="linkedin-icon-svgrepo-com 1" clip-path="url(#clip0_234_47)">
<g id="Group">
<path id="Vector" d="M31.5251 31.5258H26.0428V22.9402C26.0428 20.8929 26.0063 18.2573 23.1915 18.2573C20.3362 18.2573 19.8993 20.488 19.8993 22.7911V31.5252H14.4171V13.8697H19.68V16.2825H19.7537C20.8268 14.4476 22.8222 13.3517 24.9464 13.4306C30.5029 13.4306 31.5274 17.0855 31.5274 21.8403L31.5251 31.5258ZM8.23126 11.4564C6.47421 11.4567 5.04959 10.0325 5.04927 8.27544C5.04896 6.51835 6.47307 5.0937 8.23012 5.09338C9.98716 5.09307 11.4118 6.51721 11.4121 8.2743C11.4123 9.11808 11.0772 9.92736 10.4807 10.5241C9.88417 11.1209 9.07502 11.4562 8.23126 11.4564ZM10.9724 31.5258H5.48443V13.8697H10.9724V31.5258ZM34.2582 0.00220961H2.7296C1.23949 -0.0146066 0.0175146 1.17903 -0.000671387 2.66915V34.3292C0.0168919 35.8201 1.23877 37.0149 2.7296 36.9992H34.2582C35.752 37.0178 36.9786 35.823 36.9993 34.3292V2.66687C36.978 1.1738 35.7513 -0.0197665 34.2582 -0.000314904" fill="white"/>
</g>
</g>
<defs>
<clipPath id="clip0_234_47">
<rect width="37" height="37" fill="white"/>
</clipPath>
</defs>
</svg>
